<?xml version="1.0" encoding="utf-8" standalone="no"?>
<!DOCTYPE svg PUBLIC "-//W3C//DTD SVG 1.1//EN"
  "http://www.w3.org/Graphics/SVG/1.1/DTD/svg11.dtd">
<svg xmlns:xlink="http://www.w3.org/1999/xlink" width="259.92pt" height="159.243312pt" viewBox="0 0 259.92 159.243312" xmlns="http://www.w3.org/2000/svg" version="1.1">
 <metadata>
  <rdf:RDF xmlns:dc="http://purl.org/dc/elements/1.1/" xmlns:cc="http://creativecommons.org/ns#" xmlns:rdf="http://www.w3.org/1999/02/22-rdf-syntax-ns#">
   <cc:Work>
    <dc:type rdf:resource="http://purl.org/dc/dcmitype/StillImage"/>
    <dc:date>2026-06-03T20:24:31.469073</dc:date>
    <dc:format>image/svg+xml</dc:format>
    <dc:creator>
     <cc:Agent>
      <dc:title>Matplotlib v3.10.8, https://matplotlib.org/</dc:title>
     </cc:Agent>
    </dc:creator>
   </cc:Work>
  </rdf:RDF>
 </metadata>
 <defs>
  <style type="text/css">*{stroke-linejoin: round; stroke-linecap: butt}</style>
 </defs>
 <g id="figure_1">
  <g id="patch_1">
   <path d="M -0 159.243312
L 259.92 159.243312
L 259.92 0
L -0 0
z
" style="fill: #ffffff"/>
  </g>
  <g id="axes_1">
   <g id="table_1">
    <g id="patch_2">
     <path d="M 7.2 69.970625
L 68.58 69.970625
L 68.58 53.770625
L 7.2 53.770625
z
" style="fill: #f0f0f0; stroke: #000000; stroke-linejoin: miter"/>
    </g>
    <g id="text_1">
     <text style="font-size: 7px; font-family: 'DejaVu Serif', serif; text-anchor: middle" x="37.89" y="63.802187" transform="rotate(-0 37.89 63.802187)">Metric</text>
    </g>
    <g id="patch_3">
     <path d="M 68.58 69.970625
L 129.96 69.970625
L 129.96 53.770625
L 68.58 53.770625
z
" style="fill: #f0f0f0; stroke: #000000; stroke-linejoin: miter"/>
    </g>
    <g id="text_2">
     <text style="font-size: 7px; font-family: 'DejaVu Serif', serif" transform="translate(78.671406 59.882953)">Hard labels</text>
     <text style="font-size: 7px; font-family: 'DejaVu Serif', serif" transform="translate(84.170781 67.721422)">(winner)</text>
    </g>
    <g id="patch_4">
     <path d="M 129.96 69.970625
L 191.34 69.970625
L 191.34 53.770625
L 129.96 53.770625
z
" style="fill: #f0f0f0; stroke: #000000; stroke-linejoin: miter"/>
    </g>
    <g id="text_3">
     <text style="font-size: 7px; font-family: 'DejaVu Serif', serif" transform="translate(140.011484 59.882953)">Dilated-soft</text>
     <text style="font-size: 7px; font-family: 'DejaVu Serif', serif" transform="translate(149.925781 67.721422)">(pilot)</text>
    </g>
    <g id="patch_5">
     <path d="M 191.34 69.970625
L 252.72 69.970625
L 252.72 53.770625
L 191.34 53.770625
z
" style="fill: #f0f0f0; stroke: #000000; stroke-linejoin: miter"/>
    </g>
    <g id="text_4">
     <text style="font-size: 7px; font-family: 'DejaVu Serif', serif" transform="translate(212.539531 59.882953)">Delta</text>
     <text style="font-size: 7px; font-family: 'DejaVu Serif', serif" transform="translate(203.256328 67.721422)">(soft-hard)</text>
    </g>
    <g id="patch_6">
     <path d="M 7.2 86.170625
L 68.58 86.170625
L 68.58 69.970625
L 7.2 69.970625
z
" style="fill: #ffffff; stroke: #000000; stroke-linejoin: miter"/>
    </g>
    <g id="text_5">
     <text style="font-size: 7px; font-family: 'DejaVu Serif', serif; text-anchor: middle" x="37.89" y="80.002187" transform="rotate(-0 37.89 80.002187)">exact Dice</text>
    </g>
    <g id="patch_7">
     <path d="M 68.58 86.170625
L 129.96 86.170625
L 129.96 69.970625
L 68.58 69.970625
z
" style="fill: #ffffff; stroke: #000000; stroke-linejoin: miter"/>
    </g>
    <g id="text_6">
     <text style="font-size: 7px; font-family: 'DejaVu Serif', serif; text-anchor: middle" x="99.27" y="80.002187" transform="rotate(-0 99.27 80.002187)">0.884</text>
    </g>
    <g id="patch_8">
     <path d="M 129.96 86.170625
L 191.34 86.170625
L 191.34 69.970625
L 129.96 69.970625
z
" style="fill: #ffffff; stroke: #000000; stroke-linejoin: miter"/>
    </g>
    <g id="text_7">
     <text style="font-size: 7px; font-family: 'DejaVu Serif', serif; text-anchor: middle" x="160.65" y="80.002187" transform="rotate(-0 160.65 80.002187)">0.875</text>
    </g>
    <g id="patch_9">
     <path d="M 191.34 86.170625
L 252.72 86.170625
L 252.72 69.970625
L 191.34 69.970625
z
" style="fill: #ffffff; stroke: #000000; stroke-linejoin: miter"/>
    </g>
    <g id="text_8">
     <text style="font-size: 7px; font-family: 'DejaVu Serif', serif; text-anchor: middle" x="222.03" y="80.002187" transform="rotate(-0 222.03 80.002187)">-0.009</text>
    </g>
    <g id="patch_10">
     <path d="M 7.2 102.370625
L 68.58 102.370625
L 68.58 86.170625
L 7.2 86.170625
z
" style="fill: #ffffff; stroke: #000000; stroke-linejoin: miter"/>
    </g>
    <g id="text_9">
     <text style="font-size: 7px; font-family: 'DejaVu Serif', serif; text-anchor: middle" x="37.89" y="96.202187" transform="rotate(-0 37.89 96.202187)">+/-1 px F1</text>
    </g>
    <g id="patch_11">
     <path d="M 68.58 102.370625
L 129.96 102.370625
L 129.96 86.170625
L 68.58 86.170625
z
" style="fill: #ffffff; stroke: #000000; stroke-linejoin: miter"/>
    </g>
    <g id="text_10">
     <text style="font-size: 7px; font-family: 'DejaVu Serif', serif; text-anchor: middle" x="99.27" y="96.202187" transform="rotate(-0 99.27 96.202187)">0.963</text>
    </g>
    <g id="patch_12">
     <path d="M 129.96 102.370625
L 191.34 102.370625
L 191.34 86.170625
L 129.96 86.170625
z
" style="fill: #ffffff; stroke: #000000; stroke-linejoin: miter"/>
    </g>
    <g id="text_11">
     <text style="font-size: 7px; font-family: 'DejaVu Serif', serif; text-anchor: middle" x="160.65" y="96.202187" transform="rotate(-0 160.65 96.202187)">0.962</text>
    </g>
    <g id="patch_13">
     <path d="M 191.34 102.370625
L 252.72 102.370625
L 252.72 86.170625
L 191.34 86.170625
z
" style="fill: #ffffff; stroke: #000000; stroke-linejoin: miter"/>
    </g>
    <g id="text_12">
     <text style="font-size: 7px; font-family: 'DejaVu Serif', serif; text-anchor: middle" x="222.03" y="96.202187" transform="rotate(-0 222.03 96.202187)">-0.001</text>
    </g>
    <g id="patch_14">
     <path d="M 7.2 118.570625
L 68.58 118.570625
L 68.58 102.370625
L 7.2 102.370625
z
" style="fill: #ffffff; stroke: #000000; stroke-linejoin: miter"/>
    </g>
    <g id="text_13">
     <text style="font-size: 7px; font-family: 'DejaVu Serif', serif; text-anchor: middle" x="37.89" y="112.402187" transform="rotate(-0 37.89 112.402187)">clDice</text>
    </g>
    <g id="patch_15">
     <path d="M 68.58 118.570625
L 129.96 118.570625
L 129.96 102.370625
L 68.58 102.370625
z
" style="fill: #ffffff; stroke: #000000; stroke-linejoin: miter"/>
    </g>
    <g id="text_14">
     <text style="font-size: 7px; font-family: 'DejaVu Serif', serif; text-anchor: middle" x="99.27" y="112.402187" transform="rotate(-0 99.27 112.402187)">0.847</text>
    </g>
    <g id="patch_16">
     <path d="M 129.96 118.570625
L 191.34 118.570625
L 191.34 102.370625
L 129.96 102.370625
z
" style="fill: #ffffff; stroke: #000000; stroke-linejoin: miter"/>
    </g>
    <g id="text_15">
     <text style="font-size: 7px; font-family: 'DejaVu Serif', serif; text-anchor: middle" x="160.65" y="112.402187" transform="rotate(-0 160.65 112.402187)">0.835</text>
    </g>
    <g id="patch_17">
     <path d="M 191.34 118.570625
L 252.72 118.570625
L 252.72 102.370625
L 191.34 102.370625
z
" style="fill: #ffffff; stroke: #000000; stroke-linejoin: miter"/>
    </g>
    <g id="text_16">
     <text style="font-size: 7px; font-family: 'DejaVu Serif', serif; text-anchor: middle" x="222.03" y="112.402187" transform="rotate(-0 222.03 112.402187)">-0.013</text>
    </g>
   </g>
   <g id="text_17">
    <text style="font-size: 9px; font-family: 'DejaVu Serif', serif" transform="translate(63.190547 14.038594)">Soft-label pilot vs hard labels</text>
    <text style="font-size: 9px; font-family: 'DejaVu Serif', serif" transform="translate(91.500469 24.116625)">single seed 2804</text>
   </g>
  </g>
  <g id="text_18">
   <text style="font-size: 5.8px; font-family: 'DejaVu Serif', serif; text-anchor: middle; fill: #555555" x="126" y="150.754625" transform="rotate(-0 126 150.754625)">Single-seed protocol variant; table avoids overstating marginal/null differences.</text>
  </g>
 </g>
</svg>
