<?xml version="1.0" encoding="utf-8" standalone="no"?>
<!DOCTYPE svg PUBLIC "-//W3C//DTD SVG 1.1//EN"
  "http://www.w3.org/Graphics/SVG/1.1/DTD/svg11.dtd">
<svg xmlns:xlink="http://www.w3.org/1999/xlink" width="316.568438pt" height="219.075781pt" viewBox="0 0 316.568438 219.075781" xmlns="http://www.w3.org/2000/svg" version="1.1">
 <metadata>
  <rdf:RDF xmlns:dc="http://purl.org/dc/elements/1.1/" xmlns:cc="http://creativecommons.org/ns#" xmlns:rdf="http://www.w3.org/1999/02/22-rdf-syntax-ns#">
   <cc:Work>
    <dc:type rdf:resource="http://purl.org/dc/dcmitype/StillImage"/>
    <dc:date>2026-06-04T22:49:38.406995</dc:date>
    <dc:format>image/svg+xml</dc:format>
    <dc:creator>
     <cc:Agent>
      <dc:title>Matplotlib v3.10.8, https://matplotlib.org/</dc:title>
     </cc:Agent>
    </dc:creator>
   </cc:Work>
  </rdf:RDF>
 </metadata>
 <defs>
  <style type="text/css">*{stroke-linejoin: round; stroke-linecap: butt}</style>
 </defs>
 <g id="figure_1">
  <g id="patch_1">
   <path d="M 0 219.075781
L 316.568438 219.075781
L 316.568438 0
L 0 0
z
" style="fill: #ffffff"/>
  </g>
  <g id="axes_1">
   <g id="patch_2">
    <path d="M 41.528438 186.358594
L 309.368437 186.358594
L 309.368437 20.038594
L 41.528438 20.038594
z
" style="fill: #ffffff"/>
   </g>
   <g id="PathCollection_1">
    <defs>
     <path id="mf94a4b6e3e" d="M -0 4.1833
L 4.1833 0
L 0 -4.1833
L -4.1833 -0
z
" style="stroke: #e69f00"/>
    </defs>
    <g clip-path="url(#p6d59843f79)">
     <use xlink:href="#mf94a4b6e3e" x="250.057502" y="102.117858" style="fill: #e69f00; stroke: #e69f00"/>
    </g>
   </g>
   <g id="PathCollection_2">
    <defs>
     <path id="m4a5a558cd6" d="M 0 2.95804
C 0.784481 2.95804 1.536938 2.646362 2.09165 2.09165
C 2.646362 1.536938 2.95804 0.784481 2.95804 0
C 2.95804 -0.784481 2.646362 -1.536938 2.09165 -2.09165
C 1.536938 -2.646362 0.784481 -2.95804 0 -2.95804
C -0.784481 -2.95804 -1.536938 -2.646362 -2.09165 -2.09165
C -2.646362 -1.536938 -2.95804 -0.784481 -2.95804 0
C -2.95804 0.784481 -2.646362 1.536938 -2.09165 2.09165
C -1.536938 2.646362 -0.784481 2.95804 0 2.95804
z
" style="stroke: #009e73"/>
    </defs>
    <g clip-path="url(#p6d59843f79)">
     <use xlink:href="#m4a5a558cd6" x="245.919055" y="94.413699" style="fill: #009e73; stroke: #009e73"/>
    </g>
   </g>
   <g id="matplotlib.axis_1">
    <g id="xtick_1">
     <g id="line2d_1">
      <path d="M 41.528438 186.358594
L 41.528438 20.038594
" clip-path="url(#p6d59843f79)" style="fill: none; stroke: #b0b0b0; stroke-opacity: 0.25; stroke-width: 0.5; stroke-linecap: square"/>
     </g>
     <g id="line2d_2">
      <defs>
       <path id="mb930d35ffc" d="M 0 0
L 0 3.5
" style="stroke: #000000; stroke-width: 0.8"/>
      </defs>
      <g>
       <use xlink:href="#mb930d35ffc" x="41.528438" y="186.358594" style="stroke: #000000; stroke-width: 0.8"/>
      </g>
     </g>
     <g id="text_1">
      <text style="font-size: 7px; font-family: 'DejaVu Serif', serif; text-anchor: middle" x="41.528438" y="198.6775" transform="rotate(-0 41.528438 198.6775)">0.70</text>
     </g>
    </g>
    <g id="xtick_2">
     <g id="line2d_3">
      <path d="M 89.357009 186.358594
L 89.357009 20.038594
" clip-path="url(#p6d59843f79)" style="fill: none; stroke: #b0b0b0; stroke-opacity: 0.25; stroke-width: 0.5; stroke-linecap: square"/>
     </g>
     <g id="line2d_4">
      <g>
       <use xlink:href="#mb930d35ffc" x="89.357009" y="186.358594" style="stroke: #000000; stroke-width: 0.8"/>
      </g>
     </g>
     <g id="text_2">
      <text style="font-size: 7px; font-family: 'DejaVu Serif', serif; text-anchor: middle" x="89.357009" y="198.6775" transform="rotate(-0 89.357009 198.6775)">0.75</text>
     </g>
    </g>
    <g id="xtick_3">
     <g id="line2d_5">
      <path d="M 137.18558 186.358594
L 137.18558 20.038594
" clip-path="url(#p6d59843f79)" style="fill: none; stroke: #b0b0b0; stroke-opacity: 0.25; stroke-width: 0.5; stroke-linecap: square"/>
     </g>
     <g id="line2d_6">
      <g>
       <use xlink:href="#mb930d35ffc" x="137.18558" y="186.358594" style="stroke: #000000; stroke-width: 0.8"/>
      </g>
     </g>
     <g id="text_3">
      <text style="font-size: 7px; font-family: 'DejaVu Serif', serif; text-anchor: middle" x="137.18558" y="198.6775" transform="rotate(-0 137.18558 198.6775)">0.80</text>
     </g>
    </g>
    <g id="xtick_4">
     <g id="line2d_7">
      <path d="M 185.014152 186.358594
L 185.014152 20.038594
" clip-path="url(#p6d59843f79)" style="fill: none; stroke: #b0b0b0; stroke-opacity: 0.25; stroke-width: 0.5; stroke-linecap: square"/>
     </g>
     <g id="line2d_8">
      <g>
       <use xlink:href="#mb930d35ffc" x="185.014152" y="186.358594" style="stroke: #000000; stroke-width: 0.8"/>
      </g>
     </g>
     <g id="text_4">
      <text style="font-size: 7px; font-family: 'DejaVu Serif', serif; text-anchor: middle" x="185.014152" y="198.6775" transform="rotate(-0 185.014152 198.6775)">0.85</text>
     </g>
    </g>
    <g id="xtick_5">
     <g id="line2d_9">
      <path d="M 232.842723 186.358594
L 232.842723 20.038594
" clip-path="url(#p6d59843f79)" style="fill: none; stroke: #b0b0b0; stroke-opacity: 0.25; stroke-width: 0.5; stroke-linecap: square"/>
     </g>
     <g id="line2d_10">
      <g>
       <use xlink:href="#mb930d35ffc" x="232.842723" y="186.358594" style="stroke: #000000; stroke-width: 0.8"/>
      </g>
     </g>
     <g id="text_5">
      <text style="font-size: 7px; font-family: 'DejaVu Serif', serif; text-anchor: middle" x="232.842723" y="198.6775" transform="rotate(-0 232.842723 198.6775)">0.90</text>
     </g>
    </g>
    <g id="xtick_6">
     <g id="line2d_11">
      <path d="M 280.671295 186.358594
L 280.671295 20.038594
" clip-path="url(#p6d59843f79)" style="fill: none; stroke: #b0b0b0; stroke-opacity: 0.25; stroke-width: 0.5; stroke-linecap: square"/>
     </g>
     <g id="line2d_12">
      <g>
       <use xlink:href="#mb930d35ffc" x="280.671295" y="186.358594" style="stroke: #000000; stroke-width: 0.8"/>
      </g>
     </g>
     <g id="text_6">
      <text style="font-size: 7px; font-family: 'DejaVu Serif', serif; text-anchor: middle" x="280.671295" y="198.6775" transform="rotate(-0 280.671295 198.6775)">0.95</text>
     </g>
    </g>
    <g id="text_7">
     <text style="font-size: 8px; font-family: 'DejaVu Serif', serif; text-anchor: middle" x="175.448437" y="210.212031" transform="rotate(-0 175.448437 210.212031)">Recall</text>
    </g>
   </g>
   <g id="matplotlib.axis_2">
    <g id="ytick_1">
     <g id="line2d_13">
      <path d="M 41.528438 167.167825
L 309.368437 167.167825
" clip-path="url(#p6d59843f79)" style="fill: none; stroke: #b0b0b0; stroke-opacity: 0.25; stroke-width: 0.5; stroke-linecap: square"/>
     </g>
     <g id="line2d_14">
      <defs>
       <path id="m2161b0c68e" d="M 0 0
L -3.5 0
" style="stroke: #000000; stroke-width: 0.8"/>
      </defs>
      <g>
       <use xlink:href="#m2161b0c68e" x="41.528438" y="167.167825" style="stroke: #000000; stroke-width: 0.8"/>
      </g>
     </g>
     <g id="text_8">
      <text style="font-size: 7px; font-family: 'DejaVu Serif', serif; text-anchor: end" x="34.528438" y="169.827278" transform="rotate(-0 34.528438 169.827278)">0.75</text>
     </g>
    </g>
    <g id="ytick_2">
     <g id="line2d_15">
      <path d="M 41.528438 135.183209
L 309.368437 135.183209
" clip-path="url(#p6d59843f79)" style="fill: none; stroke: #b0b0b0; stroke-opacity: 0.25; stroke-width: 0.5; stroke-linecap: square"/>
     </g>
     <g id="line2d_16">
      <g>
       <use xlink:href="#m2161b0c68e" x="41.528438" y="135.183209" style="stroke: #000000; stroke-width: 0.8"/>
      </g>
     </g>
     <g id="text_9">
      <text style="font-size: 7px; font-family: 'DejaVu Serif', serif; text-anchor: end" x="34.528438" y="137.842662" transform="rotate(-0 34.528438 137.842662)">0.80</text>
     </g>
    </g>
    <g id="ytick_3">
     <g id="line2d_17">
      <path d="M 41.528438 103.198594
L 309.368437 103.198594
" clip-path="url(#p6d59843f79)" style="fill: none; stroke: #b0b0b0; stroke-opacity: 0.25; stroke-width: 0.5; stroke-linecap: square"/>
     </g>
     <g id="line2d_18">
      <g>
       <use xlink:href="#m2161b0c68e" x="41.528438" y="103.198594" style="stroke: #000000; stroke-width: 0.8"/>
      </g>
     </g>
     <g id="text_10">
      <text style="font-size: 7px; font-family: 'DejaVu Serif', serif; text-anchor: end" x="34.528438" y="105.858047" transform="rotate(-0 34.528438 105.858047)">0.85</text>
     </g>
    </g>
    <g id="ytick_4">
     <g id="line2d_19">
      <path d="M 41.528438 71.213978
L 309.368437 71.213978
" clip-path="url(#p6d59843f79)" style="fill: none; stroke: #b0b0b0; stroke-opacity: 0.25; stroke-width: 0.5; stroke-linecap: square"/>
     </g>
     <g id="line2d_20">
      <g>
       <use xlink:href="#m2161b0c68e" x="41.528438" y="71.213978" style="stroke: #000000; stroke-width: 0.8"/>
      </g>
     </g>
     <g id="text_11">
      <text style="font-size: 7px; font-family: 'DejaVu Serif', serif; text-anchor: end" x="34.528438" y="73.873431" transform="rotate(-0 34.528438 73.873431)">0.90</text>
     </g>
    </g>
    <g id="ytick_5">
     <g id="line2d_21">
      <path d="M 41.528438 39.229363
L 309.368437 39.229363
" clip-path="url(#p6d59843f79)" style="fill: none; stroke: #b0b0b0; stroke-opacity: 0.25; stroke-width: 0.5; stroke-linecap: square"/>
     </g>
     <g id="line2d_22">
      <g>
       <use xlink:href="#m2161b0c68e" x="41.528438" y="39.229363" style="stroke: #000000; stroke-width: 0.8"/>
      </g>
     </g>
     <g id="text_12">
      <text style="font-size: 7px; font-family: 'DejaVu Serif', serif; text-anchor: end" x="34.528438" y="41.888816" transform="rotate(-0 34.528438 41.888816)">0.95</text>
     </g>
    </g>
    <g id="text_13">
     <text style="font-size: 8px; font-family: 'DejaVu Serif', serif; text-anchor: middle" x="13.27875" y="103.198594" transform="rotate(-90 13.27875 103.198594)">Precision</text>
    </g>
   </g>
   <g id="line2d_23">
    <path d="M 296.35811 173.204601
L 295.833908 172.321825
L 295.794689 172.221394
L 295.457976 171.249061
L 295.457976 169.425299
L 295.185353 169.390116
L 295.185353 169.390116
L 294.763505 168.650631
L 294.725242 168.54892
L 294.388529 167.566993
L 294.388529 165.726598
L 294.116863 165.690135
L 294.116863 165.690135
L 293.757192 165.387561
L 293.693102 165.092663
L 293.357345 164.101779
L 293.357345 162.241554
L 292.667657 162.155835
L 292.603567 161.859018
L 292.268767 160.861098
L 292.268767 158.982322
L 291.506379 158.770584
L 291.171579 157.764987
L 291.171579 155.866381
L 290.901826 155.82672
L 290.901826 155.82672
L 290.016041 154.819844
L 290.016041 152.902046
L 289.748201 152.861106
L 289.748201 152.861106
L 288.85859 152.024389
L 288.85859 150.090599
L 288.591706 150.049019
L 288.591706 150.049019
L 287.688703 149.364548
L 287.688703 147.415405
L 287.422776 147.373186
L 287.422776 147.373186
L 286.505424 146.758441
L 286.505424 144.794586
L 286.24141 144.751727
L 286.24141 144.751727
L 285.326928 144.299464
L 285.326928 142.328572
L 285.063871 142.284433
L 285.063871 142.284433
L 284.170433 141.91789
L 284.170433 139.938682
L 283.910246 139.893903
L 283.910246 139.893903
L 282.977588 139.607321
L 282.977588 137.621077
L 281.735959 137.404861
L 281.735959 135.412859
L 280.484763 135.231186
L 280.484763 133.233427
L 280.226489 133.18609
L 280.226489 133.18609
L 279.21635 133.132356
L 279.21635 131.129479
L 277.916369 130.797479
L 277.912543 129.085662
L 276.650825 128.790124
L 276.633607 127.148034
L 276.379159 127.098778
L 276.379159 127.098778
L 275.347975 126.733513
L 275.346062 125.20145
L 275.093527 125.151554
L 275.093527 125.151554
L 274.069995 124.782452
L 274.05182 123.349541
L 273.799286 123.299645
L 273.799286 123.299645
L 272.783407 123.255506
L 272.783407 123.255506
L 272.710707 121.548168
L 271.490122 121.394641
L 271.490122 121.394641
L 271.490122 120.851543
L 271.340897 119.77622
L 270.151879 119.585592
L 270.151879 119.585592
L 270.151879 119.042493
L 269.988305 118.481483
L 269.988305 118.027301
L 268.782068 117.804049
L 268.782068 117.804049
L 268.782068 117.25967
L 268.563014 116.795893
L 268.563014 116.340433
L 268.313348 116.289257
L 267.437129 116.28286
L 267.430433 115.501156
L 267.165463 115.130135
L 267.165463 114.674034
L 266.007055 114.352269
L 266.007055 114.352269
L 266.007055 113.806611
L 265.720083 113.713216
L 265.717214 112.994202
L 264.611417 112.680113
L 264.611417 112.680113
L 264.611417 112.134456
L 264.325402 112.041061
L 264.291922 111.329723
L 263.27413 111.166601
L 263.164124 110.992605
L 263.164124 110.992605
L 263.164124 110.446947
L 262.880023 110.354192
L 262.845586 109.642854
L 261.707266 109.400411
L 261.707266 109.400411
L 261.707266 108.854753
L 261.426991 108.760718
L 261.393511 108.05002
L 260.269539 107.808856
L 260.269539 107.808856
L 260.269539 107.263838
L 259.991177 107.171083
L 259.957697 106.459105
L 258.810768 106.273595
L 258.810768 106.273595
L 258.810768 105.729856
L 258.533362 105.637741
L 258.499882 104.925763
L 257.302255 104.747929
L 257.302255 104.747929
L 257.302255 104.202271
L 257.026762 104.110795
L 256.993282 103.396898
L 255.986012 103.241453
L 255.754522 102.714347
L 255.481899 102.622231
L 255.448419 101.907055
L 254.44115 101.752249
L 253.914079 101.158615
L 253.880599 100.44088
L 252.874286 100.287994
L 252.299386 99.689881
L 252.265906 98.968309
L 251.26055 98.816701
L 250.666519 98.32094
L 250.633995 97.595529
L 249.631508 97.446481
L 249.055652 96.933447
L 249.022172 96.204198
L 248.020642 96.055789
L 247.384522 95.582417
L 247.351999 94.84933
L 246.353338 94.701561
L 245.654084 94.20516
L 245.621561 93.468234
L 244.624814 93.319825
L 243.91982 92.892511
L 243.887297 92.151108
L 242.895332 92.003978
L 242.160686 91.580502
L 242.128162 90.833981
L 240.569907 90.498782
L 240.569907 90.392593
L 240.310676 90.308154
L 240.278153 89.557155
L 239.290015 89.413225
L 238.718942 89.181016
L 238.718942 89.075467
L 238.460667 88.991028
L 238.428144 88.235551
L 236.82493 87.915065
L 236.82493 87.808237
L 236.568569 87.725716
L 236.536046 86.965762
L 234.861089 86.665746
L 234.861089 86.559557
L 234.608554 86.477037
L 234.576987 85.713884
L 232.898204 85.419625
L 232.898204 85.314076
L 232.648539 85.231556
L 232.616016 84.465205
L 230.831054 84.18374
L 230.831054 84.07947
L 230.582345 83.99631
L 230.549822 83.22804
L 228.737119 82.890922
L 228.48841 82.809681
L 228.456843 82.038852
L 226.597268 81.685741
L 226.352386 81.604501
L 226.320819 80.834311
L 224.377066 80.48248
L 224.134097 80.402519
L 224.10253 79.631689
L 222.168343 79.271543
L 221.927287 79.191581
L 221.89572 78.422671
L 219.916574 78.076597
L 219.678387 77.997915
L 219.647777 77.232843
L 217.581583 76.871417
L 217.346266 76.794014
L 217.315656 76.037898
L 215.136586 75.648325
L 214.904139 75.571562
L 214.873529 74.822483
L 212.440011 74.429072
L 212.424706 74.383654
L 212.394096 73.644809
L 209.957708 73.249479
L 209.889792 72.475452
L 207.551931 72.154966
L 207.469666 71.829362
L 207.469666 71.829362
L 207.397923 71.798657
L 207.299396 71.258117
L 204.896489 70.871743
L 204.824746 70.58772
L 204.574124 70.061893
L 202.189392 69.681276
L 202.118606 69.398532
L 201.870854 68.881021
L 199.502383 68.506161
L 199.43351 68.226615
L 199.004966 67.707825
L 196.65467 67.337443
L 196.585796 67.058537
L 196.080727 66.542305
L 193.749562 66.182159
L 193.682602 65.904532
L 192.982392 65.385102
L 190.668446 65.03519
L 190.601486 64.760123
L 189.827619 64.206149
L 187.534718 63.868392
L 187.468714 63.597162
L 186.548492 63.074533
L 184.273766 62.741254
L 184.210632 62.471304
L 183.154577 61.899419
L 180.903764 61.573815
L 180.839674 61.307064
L 179.63822 60.756289
L 177.408452 60.444119
L 177.346275 60.179286
L 176.004206 59.584372
L 173.795482 59.283717
L 173.735218 59.022083
L 172.183659 58.395184
L 169.999807 58.104124
L 169.939543 57.844409
L 168.150754 57.185526
L 165.989859 56.904701
L 165.932465 56.644346
L 164.026018 55.993779
L 161.891907 55.72191
L 161.834513 55.465393
L 159.953894 55.001617
L 159.735795 54.759173
L 157.637078 54.49626
L 157.582553 54.242941
L 155.804287 54.205839
L 155.70576 53.777245
L 155.168167 53.522008
L 153.105799 53.26869
L 153.051274 53.015372
L 151.612591 52.992343
L 151.175438 52.549676
L 150.64741 52.467795
L 150.64741 52.467795
L 150.372874 52.272049
L 149.519612 52.18825
L 145.899946 51.233189
L 145.899946 51.233189
L 145.312611 50.957482
L 143.321986 50.661944
L 143.270331 50.474514
L 139.938593 49.655708
L 139.109246 49.576386
L 138.703659 49.420941
L 137.9891 49.369765
L 137.939359 49.181056
L 133.419559 48.139637
L 132.348199 48.078227
L 132.30037 47.889517
L 129.940508 47.3445
L 129.940508 47.3445
L 128.193809 47.027852
L 127.826486 46.857054
L 126.679556 46.726557
L 126.290232 46.578788
L 123.943762 46.036969
L 123.943762 46.036969
L 122.241065 45.88792
L 122.241065 45.88792
L 122.056447 45.587265
L 119.863985 45.233515
L 117.536647 44.689777
L 117.536647 44.689777
L 115.854994 44.543927
L 115.854994 44.543927
L 115.678985 44.258624
L 114.415354 44.12173
L 113.059892 44.031533
L 113.020673 43.847302
L 110.707683 43.300365
L 110.707683 43.300365
L 109.050902 43.158993
L 109.050902 43.158993
L 108.887328 42.889043
L 106.591556 42.735517
L 105.631159 42.588387
L 105.592896 42.405435
L 103.293298 41.861057
L 103.293298 41.861057
L 101.6633 41.724163
L 101.6633 41.724163
L 101.507379 41.469565
L 100.331753 41.346745
L 98.381304 41.268062
L 97.460126 41.137565
L 97.424732 40.955893
L 95.144266 40.410235
L 95.144266 40.410235
L 93.548705 40.278458
L 93.548705 40.278458
L 93.405219 40.038574
L 92.272639 39.923429
L 88.567838 39.740477
L 88.537227 39.515305
L 86.280675 38.968369
L 86.280675 38.968369
L 84.72816 38.844268
L 84.72816 38.844268
L 84.595196 38.628692
L 83.520967 38.518025
L 78.817505 38.171312
L 78.817505 37.991558
L 78.792634 37.991558
L 76.555214 37.444621
L 76.555214 37.444621
L 75.041918 37.326918
L 75.041918 37.326918
L 74.928086 37.138209
L 73.906467 37.033299
L 68.076164 36.59511
L 68.076164 36.416636
L 68.05512 36.416636
L 65.84257 35.866501
L 65.84257 35.866501
L 64.371363 35.753275
L 64.371363 35.753275
L 64.272836 35.591433
L 63.317222 35.498677
L 63.317222 35.498677
" clip-path="url(#p6d59843f79)" style="fill: none; stroke: #0072b2; stroke-width: 1.1; stroke-linecap: square"/>
   </g>
   <g id="patch_3">
    <path d="M 41.528438 186.358594
L 41.528438 20.038594
" style="fill: none; stroke: #000000; stroke-width: 0.8; stroke-linejoin: miter; stroke-linecap: square"/>
   </g>
   <g id="patch_4">
    <path d="M 41.528438 186.358594
L 309.368438 186.358594
" style="fill: none; stroke: #000000; stroke-width: 0.8; stroke-linejoin: miter; stroke-linecap: square"/>
   </g>
   <g id="patch_5">
    <path d="M 195.301019 124.484525
Q 219.749617 109.960265 243.525367 95.835725
" style="fill: none; stroke: #000000; stroke-width: 0.7; stroke-linecap: round"/>
    <path d="M 240.626095 96.046008
L 243.525367 95.835725
L 241.95403 98.281313
" style="fill: none; stroke: #000000; stroke-width: 0.7; stroke-linecap: round"/>
   </g>
   <g id="text_14">
    <text style="font-size: 6.5px; font-family: 'DejaVu Serif', serif" transform="translate(139.091574 132.353464)">gate: +1.2 pp precision,</text>
    <text style="font-size: 6.5px; font-family: 'DejaVu Serif', serif" transform="translate(174.879152 139.724464)">-0.4 pp recall</text>
   </g>
   <g id="text_15">
    <text style="font-size: 9px; font-family: 'DejaVu Serif', serif; text-anchor: middle" x="175.448437" y="14.038594" transform="rotate(-0 175.448437 14.038594)">Classifier-gated operating characteristic</text>
   </g>
   <g id="legend_1">
    <g id="line2d_24">
     <path d="M 200.527187 29.2075
L 207.527187 29.2075
L 214.527187 29.2075
" style="fill: none; stroke: #0072b2; stroke-width: 1.1; stroke-linecap: square"/>
    </g>
    <g id="text_16">
     <text style="font-size: 7px; font-family: 'DejaVu Serif', serif; text-anchor: start" x="220.127187" y="31.6575" transform="rotate(-0 220.127187 31.6575)">Two-stage Pareto</text>
    </g>
    <g id="PathCollection_3">
     <g>
      <use xlink:href="#mf94a4b6e3e" x="207.527187" y="40.194219" style="fill: #e69f00; stroke: #e69f00"/>
     </g>
    </g>
    <g id="text_17">
     <text style="font-size: 7px; font-family: 'DejaVu Serif', serif; text-anchor: start" x="220.127187" y="42.031719" transform="rotate(-0 220.127187 42.031719)">Single-stage baseline</text>
    </g>
    <g id="PathCollection_4">
     <g>
      <use xlink:href="#m4a5a558cd6" x="207.527187" y="50.568437" style="fill: #009e73; stroke: #009e73"/>
     </g>
    </g>
    <g id="text_18">
     <text style="font-size: 7px; font-family: 'DejaVu Serif', serif; text-anchor: start" x="220.127187" y="52.405937" transform="rotate(-0 220.127187 52.405937)">Locked two-stage point</text>
    </g>
   </g>
  </g>
 </g>
 <defs>
  <clipPath id="p6d59843f79">
   <rect x="41.528438" y="20.038594" width="267.84" height="166.32"/>
  </clipPath>
 </defs>
</svg>
