<?xml version="1.0" encoding="utf-8" standalone="no"?>
<!DOCTYPE svg PUBLIC "-//W3C//DTD SVG 1.1//EN"
  "http://www.w3.org/Graphics/SVG/1.1/DTD/svg11.dtd">
<svg xmlns:xlink="http://www.w3.org/1999/xlink" width="321.022187pt" height="219.189531pt" viewBox="0 0 321.022187 219.189531" xmlns="http://www.w3.org/2000/svg" version="1.1">
 <metadata>
  <rdf:RDF xmlns:dc="http://purl.org/dc/elements/1.1/" xmlns:cc="http://creativecommons.org/ns#" xmlns:rdf="http://www.w3.org/1999/02/22-rdf-syntax-ns#">
   <cc:Work>
    <dc:type rdf:resource="http://purl.org/dc/dcmitype/StillImage"/>
    <dc:date>2026-06-02T10:59:13.076865</dc:date>
    <dc:format>image/svg+xml</dc:format>
    <dc:creator>
     <cc:Agent>
      <dc:title>Matplotlib v3.10.8, https://matplotlib.org/</dc:title>
     </cc:Agent>
    </dc:creator>
   </cc:Work>
  </rdf:RDF>
 </metadata>
 <defs>
  <style type="text/css">*{stroke-linejoin: round; stroke-linecap: butt}</style>
 </defs>
 <g id="figure_1">
  <g id="patch_1">
   <path d="M 0 219.189531
L 321.022187 219.189531
L 321.022187 0
L 0 0
z
" style="fill: #ffffff"/>
  </g>
  <g id="axes_1">
   <g id="patch_2">
    <path d="M 45.982188 186.358594
L 313.822187 186.358594
L 313.822187 20.038594
L 45.982188 20.038594
z
" style="fill: #ffffff"/>
   </g>
   <g id="FillBetweenPolyCollection_1">
    <defs>
     <path id="m9dde25566b" d="M 58.156733 -64.614505
L 58.156733 -49.581764
L 139.320369 -143.193682
L 220.484006 -154.35283
L 301.647642 -157.253636
L 301.647642 -166.431543
L 301.647642 -166.431543
L 220.484006 -163.800361
L 139.320369 -153.807485
L 58.156733 -64.614505
z
"/>
    </defs>
    <g clip-path="url(#pf63cd07fa8)">
     <use xlink:href="#m9dde25566b" x="0" y="219.189531" style="fill: #0072b2; fill-opacity: 0.16"/>
    </g>
   </g>
   <g id="FillBetweenPolyCollection_2">
    <defs>
     <path id="m73965ddca6" d="M 58.156733 -133.452689
L 58.156733 -123.228445
L 139.320369 -179.403949
L 220.484006 -182.015358
L 301.647642 -182.731827
L 301.647642 -184.335521
L 301.647642 -184.335521
L 220.484006 -183.720507
L 139.320369 -180.980662
L 58.156733 -133.452689
z
"/>
    </defs>
    <g clip-path="url(#pf63cd07fa8)">
     <use xlink:href="#m73965ddca6" x="0" y="219.189531" style="fill: #009e73; fill-opacity: 0.16"/>
    </g>
   </g>
   <g id="FillBetweenPolyCollection_3">
    <defs>
     <path id="mc8f8ce9088" d="M 58.156733 -94.541756
L 58.156733 -88.645897
L 139.320369 -161.611035
L 220.484006 -168.323341
L 301.647642 -170.077647
L 301.647642 -174.989816
L 301.647642 -174.989816
L 220.484006 -173.328279
L 139.320369 -166.916458
L 58.156733 -94.541756
z
"/>
    </defs>
    <g clip-path="url(#pf63cd07fa8)">
     <use xlink:href="#mc8f8ce9088" x="0" y="219.189531" style="fill: #e69f00; fill-opacity: 0.16"/>
    </g>
   </g>
   <g id="matplotlib.axis_1">
    <g id="xtick_1">
     <g id="line2d_1">
      <path d="M 58.156733 186.358594
L 58.156733 20.038594
" clip-path="url(#pf63cd07fa8)" style="fill: none; stroke: #b0b0b0; stroke-opacity: 0.25; stroke-width: 0.5; stroke-linecap: square"/>
     </g>
     <g id="line2d_2">
      <defs>
       <path id="mab2a01ec70" d="M 0 0
L 0 3.5
" style="stroke: #000000; stroke-width: 0.8"/>
      </defs>
      <g>
       <use xlink:href="#mab2a01ec70" x="58.156733" y="186.358594" style="stroke: #000000; stroke-width: 0.8"/>
      </g>
     </g>
     <g id="text_1">
      <text style="font-size: 7px; font-family: 'DejaVu Serif', serif; text-anchor: middle" x="58.156733" y="198.6775" transform="rotate(-0 58.156733 198.6775)">0</text>
     </g>
    </g>
    <g id="xtick_2">
     <g id="line2d_3">
      <path d="M 139.320369 186.358594
L 139.320369 20.038594
" clip-path="url(#pf63cd07fa8)" style="fill: none; stroke: #b0b0b0; stroke-opacity: 0.25; stroke-width: 0.5; stroke-linecap: square"/>
     </g>
     <g id="line2d_4">
      <g>
       <use xlink:href="#mab2a01ec70" x="139.320369" y="186.358594" style="stroke: #000000; stroke-width: 0.8"/>
      </g>
     </g>
     <g id="text_2">
      <text style="font-size: 7px; font-family: 'DejaVu Serif', serif; text-anchor: middle" x="139.320369" y="198.6775" transform="rotate(-0 139.320369 198.6775)">1</text>
     </g>
    </g>
    <g id="xtick_3">
     <g id="line2d_5">
      <path d="M 220.484006 186.358594
L 220.484006 20.038594
" clip-path="url(#pf63cd07fa8)" style="fill: none; stroke: #b0b0b0; stroke-opacity: 0.25; stroke-width: 0.5; stroke-linecap: square"/>
     </g>
     <g id="line2d_6">
      <g>
       <use xlink:href="#mab2a01ec70" x="220.484006" y="186.358594" style="stroke: #000000; stroke-width: 0.8"/>
      </g>
     </g>
     <g id="text_3">
      <text style="font-size: 7px; font-family: 'DejaVu Serif', serif; text-anchor: middle" x="220.484006" y="198.6775" transform="rotate(-0 220.484006 198.6775)">2</text>
     </g>
    </g>
    <g id="xtick_4">
     <g id="line2d_7">
      <path d="M 301.647642 186.358594
L 301.647642 20.038594
" clip-path="url(#pf63cd07fa8)" style="fill: none; stroke: #b0b0b0; stroke-opacity: 0.25; stroke-width: 0.5; stroke-linecap: square"/>
     </g>
     <g id="line2d_8">
      <g>
       <use xlink:href="#mab2a01ec70" x="301.647642" y="186.358594" style="stroke: #000000; stroke-width: 0.8"/>
      </g>
     </g>
     <g id="text_4">
      <text style="font-size: 7px; font-family: 'DejaVu Serif', serif; text-anchor: middle" x="301.647642" y="198.6775" transform="rotate(-0 301.647642 198.6775)">3</text>
     </g>
    </g>
    <g id="text_5">
     <text style="font-size: 8px; font-family: 'DejaVu Serif', serif; text-anchor: middle" x="179.902187" y="210.212031" transform="rotate(-0 179.902187 210.212031)">Boundary tolerance (px)</text>
    </g>
   </g>
   <g id="matplotlib.axis_2">
    <g id="ytick_1">
     <g id="line2d_9">
      <path d="M 45.982188 181.738594
L 313.822187 181.738594
" clip-path="url(#pf63cd07fa8)" style="fill: none; stroke: #b0b0b0; stroke-opacity: 0.25; stroke-width: 0.5; stroke-linecap: square"/>
     </g>
     <g id="line2d_10">
      <defs>
       <path id="maab7473111" d="M 0 0
L -3.5 0
" style="stroke: #000000; stroke-width: 0.8"/>
      </defs>
      <g>
       <use xlink:href="#maab7473111" x="45.982188" y="181.738594" style="stroke: #000000; stroke-width: 0.8"/>
      </g>
     </g>
     <g id="text_6">
      <text style="font-size: 7px; font-family: 'DejaVu Serif', serif; text-anchor: end" x="38.982188" y="184.398047" transform="rotate(-0 38.982188 184.398047)">0.825</text>
     </g>
    </g>
    <g id="ytick_2">
     <g id="line2d_11">
      <path d="M 45.982188 158.638594
L 313.822187 158.638594
" clip-path="url(#pf63cd07fa8)" style="fill: none; stroke: #b0b0b0; stroke-opacity: 0.25; stroke-width: 0.5; stroke-linecap: square"/>
     </g>
     <g id="line2d_12">
      <g>
       <use xlink:href="#maab7473111" x="45.982188" y="158.638594" style="stroke: #000000; stroke-width: 0.8"/>
      </g>
     </g>
     <g id="text_7">
      <text style="font-size: 7px; font-family: 'DejaVu Serif', serif; text-anchor: end" x="38.982188" y="161.298047" transform="rotate(-0 38.982188 161.298047)">0.850</text>
     </g>
    </g>
    <g id="ytick_3">
     <g id="line2d_13">
      <path d="M 45.982188 135.538594
L 313.822187 135.538594
" clip-path="url(#pf63cd07fa8)" style="fill: none; stroke: #b0b0b0; stroke-opacity: 0.25; stroke-width: 0.5; stroke-linecap: square"/>
     </g>
     <g id="line2d_14">
      <g>
       <use xlink:href="#maab7473111" x="45.982188" y="135.538594" style="stroke: #000000; stroke-width: 0.8"/>
      </g>
     </g>
     <g id="text_8">
      <text style="font-size: 7px; font-family: 'DejaVu Serif', serif; text-anchor: end" x="38.982188" y="138.198047" transform="rotate(-0 38.982188 138.198047)">0.875</text>
     </g>
    </g>
    <g id="ytick_4">
     <g id="line2d_15">
      <path d="M 45.982188 112.438594
L 313.822187 112.438594
" clip-path="url(#pf63cd07fa8)" style="fill: none; stroke: #b0b0b0; stroke-opacity: 0.25; stroke-width: 0.5; stroke-linecap: square"/>
     </g>
     <g id="line2d_16">
      <g>
       <use xlink:href="#maab7473111" x="45.982188" y="112.438594" style="stroke: #000000; stroke-width: 0.8"/>
      </g>
     </g>
     <g id="text_9">
      <text style="font-size: 7px; font-family: 'DejaVu Serif', serif; text-anchor: end" x="38.982188" y="115.098047" transform="rotate(-0 38.982188 115.098047)">0.900</text>
     </g>
    </g>
    <g id="ytick_5">
     <g id="line2d_17">
      <path d="M 45.982188 89.338594
L 313.822187 89.338594
" clip-path="url(#pf63cd07fa8)" style="fill: none; stroke: #b0b0b0; stroke-opacity: 0.25; stroke-width: 0.5; stroke-linecap: square"/>
     </g>
     <g id="line2d_18">
      <g>
       <use xlink:href="#maab7473111" x="45.982188" y="89.338594" style="stroke: #000000; stroke-width: 0.8"/>
      </g>
     </g>
     <g id="text_10">
      <text style="font-size: 7px; font-family: 'DejaVu Serif', serif; text-anchor: end" x="38.982188" y="91.998047" transform="rotate(-0 38.982188 91.998047)">0.925</text>
     </g>
    </g>
    <g id="ytick_6">
     <g id="line2d_19">
      <path d="M 45.982188 66.238594
L 313.822187 66.238594
" clip-path="url(#pf63cd07fa8)" style="fill: none; stroke: #b0b0b0; stroke-opacity: 0.25; stroke-width: 0.5; stroke-linecap: square"/>
     </g>
     <g id="line2d_20">
      <g>
       <use xlink:href="#maab7473111" x="45.982188" y="66.238594" style="stroke: #000000; stroke-width: 0.8"/>
      </g>
     </g>
     <g id="text_11">
      <text style="font-size: 7px; font-family: 'DejaVu Serif', serif; text-anchor: end" x="38.982188" y="68.898047" transform="rotate(-0 38.982188 68.898047)">0.950</text>
     </g>
    </g>
    <g id="ytick_7">
     <g id="line2d_21">
      <path d="M 45.982188 43.138594
L 313.822187 43.138594
" clip-path="url(#pf63cd07fa8)" style="fill: none; stroke: #b0b0b0; stroke-opacity: 0.25; stroke-width: 0.5; stroke-linecap: square"/>
     </g>
     <g id="line2d_22">
      <g>
       <use xlink:href="#maab7473111" x="45.982188" y="43.138594" style="stroke: #000000; stroke-width: 0.8"/>
      </g>
     </g>
     <g id="text_12">
      <text style="font-size: 7px; font-family: 'DejaVu Serif', serif; text-anchor: end" x="38.982188" y="45.798047" transform="rotate(-0 38.982188 45.798047)">0.975</text>
     </g>
    </g>
    <g id="ytick_8">
     <g id="line2d_23">
      <path d="M 45.982188 20.038594
L 313.822187 20.038594
" clip-path="url(#pf63cd07fa8)" style="fill: none; stroke: #b0b0b0; stroke-opacity: 0.25; stroke-width: 0.5; stroke-linecap: square"/>
     </g>
     <g id="line2d_24">
      <g>
       <use xlink:href="#maab7473111" x="45.982188" y="20.038594" style="stroke: #000000; stroke-width: 0.8"/>
      </g>
     </g>
     <g id="text_13">
      <text style="font-size: 7px; font-family: 'DejaVu Serif', serif; text-anchor: end" x="38.982188" y="22.698047" transform="rotate(-0 38.982188 22.698047)">1.000</text>
     </g>
    </g>
    <g id="text_14">
     <text style="font-size: 8px; font-family: 'DejaVu Serif', serif; text-anchor: middle" x="13.27875" y="103.198594" transform="rotate(-90 13.27875 103.198594)">Micro score</text>
    </g>
   </g>
   <g id="line2d_25">
    <path d="M 58.156733 160.968183
L 139.320369 70.107012
L 220.484006 59.770779
L 301.647642 57.05274
" clip-path="url(#pf63cd07fa8)" style="fill: none; stroke: #0072b2; stroke-width: 1.5; stroke-linecap: square"/>
    <defs>
     <path id="m0de7d3bf3a" d="M 0 3
C 0.795609 3 1.55874 2.683901 2.12132 2.12132
C 2.683901 1.55874 3 0.795609 3 0
C 3 -0.795609 2.683901 -1.55874 2.12132 -2.12132
C 1.55874 -2.683901 0.795609 -3 0 -3
C -0.795609 -3 -1.55874 -2.683901 -2.12132 -2.12132
C -2.683901 -1.55874 -3 -0.795609 -3 0
C -3 0.795609 -2.683901 1.55874 -2.12132 2.12132
C -1.55874 2.683901 -0.795609 3 0 3
z
" style="stroke: #0072b2"/>
    </defs>
    <g clip-path="url(#pf63cd07fa8)">
     <use xlink:href="#m0de7d3bf3a" x="58.156733" y="160.968183" style="fill: #0072b2; stroke: #0072b2"/>
     <use xlink:href="#m0de7d3bf3a" x="139.320369" y="70.107012" style="fill: #0072b2; stroke: #0072b2"/>
     <use xlink:href="#m0de7d3bf3a" x="220.484006" y="59.770779" style="fill: #0072b2; stroke: #0072b2"/>
     <use xlink:href="#m0de7d3bf3a" x="301.647642" y="57.05274" style="fill: #0072b2; stroke: #0072b2"/>
    </g>
   </g>
   <g id="line2d_26">
    <path d="M 58.156733 90.848964
L 139.320369 38.804479
L 220.484006 36.327975
L 301.647642 35.663064
" clip-path="url(#pf63cd07fa8)" style="fill: none; stroke: #009e73; stroke-width: 1.5; stroke-linecap: square"/>
    <defs>
     <path id="m4bbaf24914" d="M 0 3
C 0.795609 3 1.55874 2.683901 2.12132 2.12132
C 2.683901 1.55874 3 0.795609 3 0
C 3 -0.795609 2.683901 -1.55874 2.12132 -2.12132
C 1.55874 -2.683901 0.795609 -3 0 -3
C -0.795609 -3 -1.55874 -2.683901 -2.12132 -2.12132
C -2.683901 -1.55874 -3 -0.795609 -3 0
C -3 0.795609 -2.683901 1.55874 -2.12132 2.12132
C -1.55874 2.683901 -0.795609 3 0 3
z
" style="stroke: #009e73"/>
    </defs>
    <g clip-path="url(#pf63cd07fa8)">
     <use xlink:href="#m4bbaf24914" x="58.156733" y="90.848964" style="fill: #009e73; stroke: #009e73"/>
     <use xlink:href="#m4bbaf24914" x="139.320369" y="38.804479" style="fill: #009e73; stroke: #009e73"/>
     <use xlink:href="#m4bbaf24914" x="220.484006" y="36.327975" style="fill: #009e73; stroke: #009e73"/>
     <use xlink:href="#m4bbaf24914" x="301.647642" y="35.663064" style="fill: #009e73; stroke: #009e73"/>
    </g>
   </g>
   <g id="line2d_27">
    <path d="M 58.156733 127.468008
L 139.320369 54.742925
L 220.484006 48.212093
L 301.647642 46.494007
" clip-path="url(#pf63cd07fa8)" style="fill: none; stroke: #e69f00; stroke-width: 1.5; stroke-linecap: square"/>
    <defs>
     <path id="m1dd665dd8f" d="M 0 3
C 0.795609 3 1.55874 2.683901 2.12132 2.12132
C 2.683901 1.55874 3 0.795609 3 0
C 3 -0.795609 2.683901 -1.55874 2.12132 -2.12132
C 1.55874 -2.683901 0.795609 -3 0 -3
C -0.795609 -3 -1.55874 -2.683901 -2.12132 -2.12132
C -2.683901 -1.55874 -3 -0.795609 -3 0
C -3 0.795609 -2.683901 1.55874 -2.12132 2.12132
C -1.55874 2.683901 -0.795609 3 0 3
z
" style="stroke: #e69f00"/>
    </defs>
    <g clip-path="url(#pf63cd07fa8)">
     <use xlink:href="#m1dd665dd8f" x="58.156733" y="127.468008" style="fill: #e69f00; stroke: #e69f00"/>
     <use xlink:href="#m1dd665dd8f" x="139.320369" y="54.742925" style="fill: #e69f00; stroke: #e69f00"/>
     <use xlink:href="#m1dd665dd8f" x="220.484006" y="48.212093" style="fill: #e69f00; stroke: #e69f00"/>
     <use xlink:href="#m1dd665dd8f" x="301.647642" y="46.494007" style="fill: #e69f00; stroke: #e69f00"/>
    </g>
   </g>
   <g id="line2d_28">
    <path d="M 45.982188 75.478594
L 313.822187 75.478594
" clip-path="url(#pf63cd07fa8)" style="fill: none; stroke-dasharray: 3.33,1.44; stroke-dashoffset: 0; stroke: #000000; stroke-width: 0.9"/>
   </g>
   <g id="patch_3">
    <path d="M 45.982188 186.358594
L 45.982188 20.038594
" style="fill: none; stroke: #000000; stroke-width: 0.8; stroke-linejoin: miter; stroke-linecap: square"/>
   </g>
   <g id="patch_4">
    <path d="M 45.982188 186.358594
L 313.822187 186.358594
" style="fill: none; stroke: #000000; stroke-width: 0.8; stroke-linejoin: miter; stroke-linecap: square"/>
   </g>
   <g id="text_15">
    <text style="font-size: 9px; font-family: 'DejaVu Serif', serif; text-anchor: middle" x="179.902187" y="14.038594" transform="rotate(-0 179.902187 14.038594)">Precision/recall/F1 under boundary tolerance</text>
   </g>
   <g id="legend_1">
    <g id="line2d_29">
     <path d="M 249.573125 145.32875
L 256.573125 145.32875
L 263.573125 145.32875
" style="fill: none; stroke: #0072b2; stroke-width: 1.5; stroke-linecap: square"/>
     <g>
      <use xlink:href="#m0de7d3bf3a" x="256.573125" y="145.32875" style="fill: #0072b2; stroke: #0072b2"/>
     </g>
    </g>
    <g id="text_16">
     <text style="font-size: 7px; font-family: 'DejaVu Serif', serif; text-anchor: start" x="269.173125" y="147.77875" transform="rotate(-0 269.173125 147.77875)">Precision</text>
    </g>
    <g id="line2d_30">
     <path d="M 249.573125 155.603438
L 256.573125 155.603438
L 263.573125 155.603438
" style="fill: none; stroke: #009e73; stroke-width: 1.5; stroke-linecap: square"/>
     <g>
      <use xlink:href="#m4bbaf24914" x="256.573125" y="155.603438" style="fill: #009e73; stroke: #009e73"/>
     </g>
    </g>
    <g id="text_17">
     <text style="font-size: 7px; font-family: 'DejaVu Serif', serif; text-anchor: start" x="269.173125" y="158.053438" transform="rotate(-0 269.173125 158.053438)">Recall</text>
    </g>
    <g id="line2d_31">
     <path d="M 249.573125 165.878125
L 256.573125 165.878125
L 263.573125 165.878125
" style="fill: none; stroke: #e69f00; stroke-width: 1.5; stroke-linecap: square"/>
     <g>
      <use xlink:href="#m1dd665dd8f" x="256.573125" y="165.878125" style="fill: #e69f00; stroke: #e69f00"/>
     </g>
    </g>
    <g id="text_18">
     <text style="font-size: 7px; font-family: 'DejaVu Serif', serif; text-anchor: start" x="269.173125" y="168.328125" transform="rotate(-0 269.173125 168.328125)">F1</text>
    </g>
    <g id="line2d_32">
     <path d="M 249.573125 176.152813
L 256.573125 176.152813
L 263.573125 176.152813
" style="fill: none; stroke-dasharray: 3.33,1.44; stroke-dashoffset: 0; stroke: #000000; stroke-width: 0.9"/>
    </g>
    <g id="text_19">
     <text style="font-size: 7px; font-family: 'DejaVu Serif', serif; text-anchor: start" x="269.173125" y="178.602812" transform="rotate(-0 269.173125 178.602812)">Paper 0.94</text>
    </g>
   </g>
  </g>
 </g>
 <defs>
  <clipPath id="pf63cd07fa8">
   <rect x="45.982188" y="20.038594" width="267.84" height="166.32"/>
  </clipPath>
 </defs>
</svg>
